<?xml version="1.0" encoding="iso-8859-1"?>
<!-- Generator: Adobe Illustrator 19.0.0, SVG Export Plug-In . SVG Version: 6.00 Build 0)  -->
<svg version="1.1" id="Layer_1" xmlns="http://www.w3.org/2000/svg" xmlns:xlink="http://www.w3.org/1999/xlink" x="0px" y="0px"
	 viewBox="0 0 496 496" style="enable-background:new 0 0 496 496;" xml:space="preserve">
<g>
	<g>
		<g>
			<rect x="480" y="480" width="16" height="16"/>
			<path d="M406.368,106.232L451.392,184h26.64l14.04-49.104c2.608-9.136,3.928-18.6,3.928-28.104
				c0-29.504-12.736-57.56-34.936-76.992L427.008,0h-46.32L358,22.688l16.976,29.328L168.28,173.184
				c-7.272,4.256-12.424,11.104-14.504,19.272c-2.088,8.168-0.84,16.632,3.496,23.856c4.32,7.208,11.152,12.032,18.736,14.072V328
				h-26.84L16,436.192V480H0v16h464v-16h-72v-24l-32.936-264H344v-49.208L406.368,106.232z M360,328.504l16,128V480h-16V328.504z
				 M387.312,16h33.68l29.536,25.84C469.256,58.232,480,81.904,480,106.792c0,8.024-1.12,16.008-3.32,23.72L465.968,168h-5.36
				L378,25.312L387.312,16z M104,480H88v-24h16V480z M152,480h-32v-40H72v40H32v-36.192L154.84,344H232v32h-80V480z M192,328
				v-97.504c2.736-0.704,5.416-1.776,7.96-3.272l8.04-4.712V328H192z M248,480h-80v-88h80V480z M312,480h-16v-23.504l16-128V480z
				 M280.064,455.008L280.016,480H264V376h-16v-48h-24V213.136l104-60.968V192h-15.064L280.064,455.008z M344,480h-16v-32h16V480z
				 M344,432h-16v-32h16V432z M344,384h-16v-32h16V384z M344,336h-16v-32h16V336z M344,288h-16v-32h16V288z M344,240h-16v-32h16V240
				z M191.872,213.432c-7.232,4.24-16.592,1.816-20.888-5.344c-2.128-3.528-2.728-7.68-1.712-11.672
				c1.024-3.992,3.536-7.344,7.104-9.432l206.616-121.12l15.36,26.528L191.872,213.432z"/>
			<path d="M112,344c13.232,0,24-10.768,24-24s-10.768-24-24-24s-24,10.768-24,24S98.768,344,112,344z M112,312c4.416,0,8,3.584,8,8
				c0,4.416-3.584,8-8,8s-8-3.584-8-8C104,315.584,107.584,312,112,312z"/>
			<path d="M32,408c13.232,0,24-10.768,24-24s-10.768-24-24-24S8,370.768,8,384S18.768,408,32,408z M32,376c4.416,0,8,3.584,8,8
				c0,4.416-3.584,8-8,8s-8-3.584-8-8C24,379.584,27.584,376,32,376z"/>
			<rect x="216" y="408" width="16" height="16"/>
			<rect x="184" y="408" width="16" height="16"/>
			<rect x="240" y="216" width="16" height="16"/>
			<rect x="240" y="248" width="16" height="16"/>
		</g>
	</g>
</g>
<g>
</g>
<g>
</g>
<g>
</g>
<g>
</g>
<g>
</g>
<g>
</g>
<g>
</g>
<g>
</g>
<g>
</g>
<g>
</g>
<g>
</g>
<g>
</g>
<g>
</g>
<g>
</g>
<g>
</g>
</svg>
