
<svg width="69px" height="86px" viewBox="0 0 69 86" version="1.1" xmlns="http://www.w3.org/2000/svg" xmlns:xlink="http://www.w3.org/1999/xlink">
    <!-- Generator: Sketch 50.2 (55047) - http://www.bohemiancoding.com/sketch -->
    <desc>Created with Sketch.</desc>
    <defs>
        <path d="M33.6287712,77.8774918 C53.2095904,58.158393 63,42.6992291 63,31.5 C63,14.1030304 48.8969696,0 31.5,0 C14.1030304,0 0,14.1030304 0,31.5 C0,42.6992283 9.79040826,58.1583909 29.3712248,77.8774878 L29.3712207,77.8774918 C30.5386663,79.0531819 32.4381531,79.0598654 33.6138432,77.8924198 C33.6188367,77.8874613 33.6238127,77.8824853 33.6287712,77.8774918 Z" id="path-1"></path>
        <filter x="-7.1%" y="-4.4%" width="114.3%" height="112.7%" filterUnits="objectBoundingBox" id="filter-2">
            <feMorphology radius="2" operator="dilate" in="SourceAlpha" result="shadowSpreadOuter1"></feMorphology>
            <feOffset dx="0" dy="2" in="shadowSpreadOuter1" result="shadowOffsetOuter1"></feOffset>
            <feGaussianBlur stdDeviation="0.5" in="shadowOffsetOuter1" result="shadowBlurOuter1"></feGaussianBlur>
            <feComposite in="shadowBlurOuter1" in2="SourceAlpha" operator="out" result="shadowBlurOuter1"></feComposite>
            <feColorMatrix values="0 0 0 0 0   0 0 0 0 0   0 0 0 0 0  0 0 0 0.236129982 0" type="matrix" in="shadowBlurOuter1"></feColorMatrix>
        </filter>
    </defs>
    <g id="Page-1" stroke="none" stroke-width="1" fill="none" fill-rule="evenodd">
        <g id="Group-2" transform="translate(3.000000, 2.000000)">
            <g id="Oval-Copy">
                <use fill="black" fill-opacity="1" filter="url(#filter-2)" xlink:href="#path-1"></use>
                <use stroke="#C7C7C7" stroke-width="4" fill="#FFFFFF" fill-rule="evenodd" xlink:href="#path-1"></use>
            </g>
            <g id="oil-petrol" transform="translate(14.000000, 14.000000)" fill="#434343" fill-rule="nonzero">
                <path d="M33.898629,19.7789516 L34.5687097,19.5554032 L32.6420161,13.1334677 L28.4476613,11.3360484 L28.0033871,12.373629 L31.7122581,13.9633065 L31.7867742,14.2122581 L30.0108065,14.8044355 L29.3401613,17.4858871 L29.5535484,18.5522581 C29.6805645,19.1867742 30.0740323,19.7371774 30.6334677,20.0623387 C30.9817742,20.263871 31.3735484,20.3671774 31.7675806,20.3671774 C32.0080645,20.3671774 32.2491129,20.3293548 32.4816935,20.2514516 L32.8266129,20.1362903 L33.8709677,23.7887097 L33.8709677,29.9193548 C33.8709677,30.5420161 33.3645968,31.0483871 32.7419355,31.0483871 C32.1192742,31.0483871 31.6129032,30.5420161 31.6129032,29.9193548 L31.6129032,25.4032258 C31.6129032,24.1579032 30.6001613,23.1451613 29.3548387,23.1451613 L27.6612903,23.1451613 L27.6612903,3.38709677 L29.3548387,3.38709677 L29.3548387,0 L5.64516129,0 L5.64516129,3.38709677 L7.33870968,3.38709677 L7.33870968,33.8709677 L0,33.8709677 L0,35 L32.7419355,35 L32.7419355,33.8709677 L27.6612903,33.8709677 L27.6612903,24.2741935 L29.3548387,24.2741935 C29.9775,24.2741935 30.483871,24.7805645 30.483871,25.4032258 L30.483871,29.9193548 C30.483871,31.1646774 31.4966129,32.1774194 32.7419355,32.1774194 C33.9872581,32.1774194 35,31.1646774 35,29.9193548 L35,23.7096774 L33.898629,19.7789516 Z M32.1249194,19.1805645 C31.813871,19.2855645 31.4858871,19.251129 31.201371,19.0862903 C30.9174194,18.9214516 30.7254839,18.6527419 30.661129,18.3309677 L30.4974194,17.5141129 L30.956371,15.6794355 L32.1119355,15.2944355 L33.1732258,18.8316935 L32.1249194,19.1805645 Z M26.5322581,33.8709677 L8.46774194,33.8709677 L8.46774194,20.8870968 L26.5322581,20.8870968 L26.5322581,33.8709677 Z M26.5322581,19.7580645 L8.46774194,19.7580645 L8.46774194,3.38709677 L9.59677419,3.38709677 L9.59677419,7.90322581 L25.4032258,7.90322581 L25.4032258,3.38709677 L26.5322581,3.38709677 L26.5322581,19.7580645 Z M10.7258065,6.77419355 L10.7258065,3.38709677 L24.2741935,3.38709677 L24.2741935,6.77419355 L10.7258065,6.77419355 Z M6.77419355,2.25806452 L6.77419355,1.12903226 L28.2258065,1.12903226 L28.2258065,2.25806452 L6.77419355,2.25806452 Z" id="Shape" stroke="#C7C7C7" stroke-width="7" stroke-linecap="round" stroke-linejoin="round"></path>
                <rect id="Rectangle-path" x="34" y="34" width="1" height="1"></rect>
                <path d="M10,19 L26,19 L26,9 L10,9 L10,19 Z M11.1428571,10.1764706 L24.8571429,10.1764706 L24.8571429,17.8235294 L11.1428571,17.8235294 L11.1428571,10.1764706 Z" id="Shape"></path>
                <path d="M12,14 L17,14 L17,11 L12,11 L12,14 Z M13.1111111,12 L15.8888889,12 L15.8888889,13 L13.1111111,13 L13.1111111,12 Z" id="Shape"></path>
                <path d="M18,14 L23,14 L23,11 L18,11 L18,14 Z M19.1111111,12 L21.8888889,12 L21.8888889,13 L19.1111111,13 L19.1111111,12 Z" id="Shape"></path>
                <rect id="Rectangle-path" x="24" y="32" width="1" height="1"></rect>
                <rect id="Rectangle-path" x="22" y="32" width="1" height="1"></rect>
                <rect id="Rectangle-path" x="20" y="32" width="1" height="1"></rect>
                <rect id="Rectangle-path" x="20" y="29" width="6" height="1"></rect>
                <path d="M33.898629,19.7789516 L34.5687097,19.5554032 L32.6420161,13.1334677 L28.4476613,11.3360484 L28.0033871,12.373629 L31.7122581,13.9633065 L31.7867742,14.2122581 L30.0108065,14.8044355 L29.3401613,17.4858871 L29.5535484,18.5522581 C29.6805645,19.1867742 30.0740323,19.7371774 30.6334677,20.0623387 C30.9817742,20.263871 31.3735484,20.3671774 31.7675806,20.3671774 C32.0080645,20.3671774 32.2491129,20.3293548 32.4816935,20.2514516 L32.8266129,20.1362903 L33.8709677,23.7887097 L33.8709677,29.9193548 C33.8709677,30.5420161 33.3645968,31.0483871 32.7419355,31.0483871 C32.1192742,31.0483871 31.6129032,30.5420161 31.6129032,29.9193548 L31.6129032,25.4032258 C31.6129032,24.1579032 30.6001613,23.1451613 29.3548387,23.1451613 L27.6612903,23.1451613 L27.6612903,3.38709677 L29.3548387,3.38709677 L29.3548387,0 L5.64516129,0 L5.64516129,3.38709677 L7.33870968,3.38709677 L7.33870968,33.8709677 L0,33.8709677 L0,35 L32.7419355,35 L32.7419355,33.8709677 L27.6612903,33.8709677 L27.6612903,24.2741935 L29.3548387,24.2741935 C29.9775,24.2741935 30.483871,24.7805645 30.483871,25.4032258 L30.483871,29.9193548 C30.483871,31.1646774 31.4966129,32.1774194 32.7419355,32.1774194 C33.9872581,32.1774194 35,31.1646774 35,29.9193548 L35,23.7096774 L33.898629,19.7789516 Z M32.1249194,19.1805645 C31.813871,19.2855645 31.4858871,19.251129 31.201371,19.0862903 C30.9174194,18.9214516 30.7254839,18.6527419 30.661129,18.3309677 L30.4974194,17.5141129 L30.956371,15.6794355 L32.1119355,15.2944355 L33.1732258,18.8316935 L32.1249194,19.1805645 Z M26.5322581,33.8709677 L8.46774194,33.8709677 L8.46774194,20.8870968 L26.5322581,20.8870968 L26.5322581,33.8709677 Z M26.5322581,19.7580645 L8.46774194,19.7580645 L8.46774194,3.38709677 L9.59677419,3.38709677 L9.59677419,7.90322581 L25.4032258,7.90322581 L25.4032258,3.38709677 L26.5322581,3.38709677 L26.5322581,19.7580645 Z M10.7258065,6.77419355 L10.7258065,3.38709677 L24.2741935,3.38709677 L24.2741935,6.77419355 L10.7258065,6.77419355 Z M6.77419355,2.25806452 L6.77419355,1.12903226 L28.2258065,1.12903226 L28.2258065,2.25806452 L6.77419355,2.25806452 Z" id="Shape"></path>
            </g>
        </g>
    </g>
</svg>