
<svg width="69px" height="86px" viewBox="0 0 69 86" version="1.1" xmlns="http://www.w3.org/2000/svg" xmlns:xlink="http://www.w3.org/1999/xlink">
    <!-- Generator: Sketch 50.2 (55047) - http://www.bohemiancoding.com/sketch -->
    <desc>Created with Sketch.</desc>
    <defs>
        <path d="M33.6287712,77.8774918 C53.2095904,58.158393 63,42.6992291 63,31.5 C63,14.1030304 48.8969696,0 31.5,0 C14.1030304,0 0,14.1030304 0,31.5 C0,42.6992283 9.79040826,58.1583909 29.3712248,77.8774878 L29.3712207,77.8774918 C30.5386663,79.0531819 32.4381531,79.0598654 33.6138432,77.8924198 C33.6188367,77.8874613 33.6238127,77.8824853 33.6287712,77.8774918 Z" id="path-1"></path>
        <filter x="-7.1%" y="-4.4%" width="114.3%" height="112.7%" filterUnits="objectBoundingBox" id="filter-2">
            <feMorphology radius="2" operator="dilate" in="SourceAlpha" result="shadowSpreadOuter1"></feMorphology>
            <feOffset dx="0" dy="2" in="shadowSpreadOuter1" result="shadowOffsetOuter1"></feOffset>
            <feGaussianBlur stdDeviation="0.5" in="shadowOffsetOuter1" result="shadowBlurOuter1"></feGaussianBlur>
            <feComposite in="shadowBlurOuter1" in2="SourceAlpha" operator="out" result="shadowBlurOuter1"></feComposite>
            <feColorMatrix values="0 0 0 0 0   0 0 0 0 0   0 0 0 0 0  0 0 0 0.236129982 0" type="matrix" in="shadowBlurOuter1"></feColorMatrix>
        </filter>
    </defs>
    <g id="Page-1" stroke="none" stroke-width="1" fill="none" fill-rule="evenodd">
        <g id="Group" transform="translate(3.000000, 2.000000)">
            <g id="Oval" stroke-linecap="round" stroke-linejoin="round">
                <use fill="black" fill-opacity="1" filter="url(#filter-2)" xlink:href="#path-1"></use>
                <use stroke="#C7C7C7" stroke-width="4" fill="#FFFFFF" fill-rule="evenodd" xlink:href="#path-1"></use>
            </g>
            <g id="oil-factory" transform="translate(14.000000, 14.000000)" fill="#434343" fill-rule="nonzero">
                <path d="M35,15.8064516 L35,14.6774194 L33.8709677,14.6774194 L33.8709677,3.9516129 L32.1774194,3.9516129 L32.1774194,2.82258065 C32.1774194,1.26620968 30.9112097,0 29.3548387,0 L28.2258065,0 C26.6694355,0 25.4032258,1.26620968 25.4032258,2.82258065 L25.4032258,8.46774194 L22.016129,8.46774194 L22.016129,9.59677419 L12.4193548,9.59677419 C10.8629839,9.59677419 9.59677419,10.8629839 9.59677419,12.4193548 L9.59677419,13.5483871 L7.33870968,13.5483871 L7.33870968,15.1295968 C6.74483871,15.3254839 6.17862903,15.5845968 5.64516129,15.8950806 L5.64516129,9.59677419 L6.77419355,9.59677419 L6.77419355,6.20967742 L5.64516129,6.20967742 L5.64516129,3.38709677 L1.12903226,3.38709677 L1.12903226,6.20967742 L0,6.20967742 L0,9.59677419 L1.12903226,9.59677419 L1.12903226,21.4516129 L0.564516129,21.4516129 L0.564516129,25.9677419 L1.12903226,25.9677419 L1.12903226,33.8709677 L0,33.8709677 L0,35 L35,35 L35,33.8709677 L33.8709677,33.8709677 L33.8709677,15.8064516 L35,15.8064516 Z M1.12903226,7.33870968 L1.69354839,7.33870968 L2.25806452,7.33870968 L3.38709677,7.33870968 L3.38709677,6.20967742 L2.25806452,6.20967742 L2.25806452,4.51612903 L4.51612903,4.51612903 L4.51612903,7.33870968 L5.64516129,7.33870968 L5.64516129,8.46774194 L4.51612903,8.46774194 L4.51612903,16.676371 C3.59991935,17.4153226 2.83048387,18.3270161 2.25806452,19.3578226 L2.25806452,9.59677419 L3.38709677,9.59677419 L3.38709677,8.46774194 L2.25806452,8.46774194 L1.69354839,8.46774194 L1.12903226,8.46774194 L1.12903226,7.33870968 Z M4.51612903,31.0483871 L4.51612903,33.8709677 L2.25806452,33.8709677 L2.25806452,28.0649194 C2.91516129,29.2520968 3.82685484,30.2693548 4.91637097,31.0483871 L4.51612903,31.0483871 Z M9.59677419,33.8709677 L5.64516129,33.8709677 L5.64516129,31.5220161 C6.82895161,32.2084677 8.1758871,32.6273387 9.59677419,32.7170968 L9.59677419,33.8709677 Z M18.0645161,33.8709677 L10.7258065,33.8709677 L10.7258065,32.7170968 C13.8425,32.5206452 16.5950806,30.7187097 18.0645161,28.0649194 L18.0645161,33.8709677 Z M18.6290323,24.8387097 L16.3709677,24.8387097 L16.3709677,25.9677419 L17.7365323,25.9677419 C16.8045161,29.0979839 13.9966129,31.3526613 10.7258065,31.5880645 L10.7258065,27.0967742 L9.59677419,27.0967742 L9.59677419,31.5880645 C6.32596774,31.3526613 3.5175,29.0979839 2.58604839,25.9677419 L15.2419355,25.9677419 L15.2419355,24.8387097 L1.69354839,24.8387097 L1.69354839,22.5806452 L3.9516129,22.5806452 L3.9516129,21.4516129 L2.59056452,21.4516129 C3.36225806,18.8796774 5.44080645,16.8135484 8.0533871,16.0920968 L8.46774194,15.9780645 L8.46774194,14.6774194 L11.8548387,14.6774194 L11.8548387,15.9780645 L12.2691935,16.0920968 C14.8817742,16.8135484 16.9603226,18.8796774 17.7320161,21.4516129 L5.08064516,21.4516129 L5.08064516,22.5806452 L18.6290323,22.5806452 L18.6290323,24.8387097 Z M22.016129,21.4516129 L20.8870968,21.4516129 L20.8870968,22.5806452 L22.016129,22.5806452 L22.016129,33.8709677 L19.1935484,33.8709677 L19.1935484,25.9677419 L19.7580645,25.9677419 L19.7580645,21.4516129 L18.9039516,21.4516129 C18.2812903,19.0479032 16.6656452,16.9998387 14.5199194,15.8064516 L22.016129,15.8064516 L22.016129,21.4516129 Z M22.016129,11.8548387 L20.8870968,11.8548387 L20.8870968,12.983871 L22.016129,12.983871 L22.016129,14.6774194 L12.983871,14.6774194 L12.983871,13.5483871 L10.7258065,13.5483871 L10.7258065,12.4193548 C10.7258065,11.4856452 11.4856452,10.7258065 12.4193548,10.7258065 L22.016129,10.7258065 L22.016129,11.8548387 Z M29.3548387,33.8709677 L23.1451613,33.8709677 L23.1451613,22.5806452 L29.3548387,22.5806452 L29.3548387,33.8709677 Z M29.3548387,14.6774194 L28.2258065,14.6774194 L28.2258065,15.8064516 L29.3548387,15.8064516 L29.3548387,21.4516129 L23.1451613,21.4516129 L23.1451613,12.983871 L29.3548387,12.983871 L29.3548387,14.6774194 Z M29.3548387,11.8548387 L23.1451613,11.8548387 L23.1451613,9.59677419 L29.3548387,9.59677419 L29.3548387,11.8548387 Z M29.3548387,8.46774194 L26.5322581,8.46774194 L26.5322581,2.82258065 C26.5322581,1.88887097 27.2920968,1.12903226 28.2258065,1.12903226 L29.3548387,1.12903226 C30.2885484,1.12903226 31.0483871,1.88887097 31.0483871,2.82258065 L31.0483871,3.9516129 L29.3548387,3.9516129 L29.3548387,8.46774194 Z M32.7419355,33.8709677 L30.483871,33.8709677 L30.483871,15.8064516 L32.7419355,15.8064516 L32.7419355,33.8709677 Z M32.7419355,14.6774194 L30.483871,14.6774194 L30.483871,5 L32.7419355,5 L32.7419355,14.6774194 Z" id="Shape" stroke="#C7C7C7" stroke-width="7" stroke-linecap="round" stroke-linejoin="round"></path>
                <path d="M35,15.8064516 L35,14.6774194 L33.8709677,14.6774194 L33.8709677,3.9516129 L32.1774194,3.9516129 L32.1774194,2.82258065 C32.1774194,1.26620968 30.9112097,0 29.3548387,0 L28.2258065,0 C26.6694355,0 25.4032258,1.26620968 25.4032258,2.82258065 L25.4032258,8.46774194 L22.016129,8.46774194 L22.016129,9.59677419 L12.4193548,9.59677419 C10.8629839,9.59677419 9.59677419,10.8629839 9.59677419,12.4193548 L9.59677419,13.5483871 L7.33870968,13.5483871 L7.33870968,15.1295968 C6.74483871,15.3254839 6.17862903,15.5845968 5.64516129,15.8950806 L5.64516129,9.59677419 L6.77419355,9.59677419 L6.77419355,6.20967742 L5.64516129,6.20967742 L5.64516129,3.38709677 L1.12903226,3.38709677 L1.12903226,6.20967742 L0,6.20967742 L0,9.59677419 L1.12903226,9.59677419 L1.12903226,21.4516129 L0.564516129,21.4516129 L0.564516129,25.9677419 L1.12903226,25.9677419 L1.12903226,33.8709677 L0,33.8709677 L0,35 L35,35 L35,33.8709677 L33.8709677,33.8709677 L33.8709677,15.8064516 L35,15.8064516 Z M1.12903226,7.33870968 L1.69354839,7.33870968 L2.25806452,7.33870968 L3.38709677,7.33870968 L3.38709677,6.20967742 L2.25806452,6.20967742 L2.25806452,4.51612903 L4.51612903,4.51612903 L4.51612903,7.33870968 L5.64516129,7.33870968 L5.64516129,8.46774194 L4.51612903,8.46774194 L4.51612903,16.676371 C3.59991935,17.4153226 2.83048387,18.3270161 2.25806452,19.3578226 L2.25806452,9.59677419 L3.38709677,9.59677419 L3.38709677,8.46774194 L2.25806452,8.46774194 L1.69354839,8.46774194 L1.12903226,8.46774194 L1.12903226,7.33870968 Z M4.51612903,31.0483871 L4.51612903,33.8709677 L2.25806452,33.8709677 L2.25806452,28.0649194 C2.91516129,29.2520968 3.82685484,30.2693548 4.91637097,31.0483871 L4.51612903,31.0483871 Z M9.59677419,33.8709677 L5.64516129,33.8709677 L5.64516129,31.5220161 C6.82895161,32.2084677 8.1758871,32.6273387 9.59677419,32.7170968 L9.59677419,33.8709677 Z M18.0645161,33.8709677 L10.7258065,33.8709677 L10.7258065,32.7170968 C13.8425,32.5206452 16.5950806,30.7187097 18.0645161,28.0649194 L18.0645161,33.8709677 Z M18.6290323,24.8387097 L16.3709677,24.8387097 L16.3709677,25.9677419 L17.7365323,25.9677419 C16.8045161,29.0979839 13.9966129,31.3526613 10.7258065,31.5880645 L10.7258065,27.0967742 L9.59677419,27.0967742 L9.59677419,31.5880645 C6.32596774,31.3526613 3.5175,29.0979839 2.58604839,25.9677419 L15.2419355,25.9677419 L15.2419355,24.8387097 L1.69354839,24.8387097 L1.69354839,22.5806452 L3.9516129,22.5806452 L3.9516129,21.4516129 L2.59056452,21.4516129 C3.36225806,18.8796774 5.44080645,16.8135484 8.0533871,16.0920968 L8.46774194,15.9780645 L8.46774194,14.6774194 L11.8548387,14.6774194 L11.8548387,15.9780645 L12.2691935,16.0920968 C14.8817742,16.8135484 16.9603226,18.8796774 17.7320161,21.4516129 L5.08064516,21.4516129 L5.08064516,22.5806452 L18.6290323,22.5806452 L18.6290323,24.8387097 Z M22.016129,21.4516129 L20.8870968,21.4516129 L20.8870968,22.5806452 L22.016129,22.5806452 L22.016129,33.8709677 L19.1935484,33.8709677 L19.1935484,25.9677419 L19.7580645,25.9677419 L19.7580645,21.4516129 L18.9039516,21.4516129 C18.2812903,19.0479032 16.6656452,16.9998387 14.5199194,15.8064516 L22.016129,15.8064516 L22.016129,21.4516129 Z M22.016129,11.8548387 L20.8870968,11.8548387 L20.8870968,12.983871 L22.016129,12.983871 L22.016129,14.6774194 L12.983871,14.6774194 L12.983871,13.5483871 L10.7258065,13.5483871 L10.7258065,12.4193548 C10.7258065,11.4856452 11.4856452,10.7258065 12.4193548,10.7258065 L22.016129,10.7258065 L22.016129,11.8548387 Z M29.3548387,33.8709677 L23.1451613,33.8709677 L23.1451613,22.5806452 L29.3548387,22.5806452 L29.3548387,33.8709677 Z M29.3548387,14.6774194 L28.2258065,14.6774194 L28.2258065,15.8064516 L29.3548387,15.8064516 L29.3548387,21.4516129 L23.1451613,21.4516129 L23.1451613,12.983871 L29.3548387,12.983871 L29.3548387,14.6774194 Z M29.3548387,11.8548387 L23.1451613,11.8548387 L23.1451613,9.59677419 L29.3548387,9.59677419 L29.3548387,11.8548387 Z M29.3548387,8.46774194 L26.5322581,8.46774194 L26.5322581,2.82258065 C26.5322581,1.88887097 27.2920968,1.12903226 28.2258065,1.12903226 L29.3548387,1.12903226 C30.2885484,1.12903226 31.0483871,1.88887097 31.0483871,2.82258065 L31.0483871,3.9516129 L29.3548387,3.9516129 L29.3548387,8.46774194 Z M32.7419355,33.8709677 L30.483871,33.8709677 L30.483871,15.8064516 L32.7419355,15.8064516 L32.7419355,33.8709677 Z M32.7419355,14.6774194 L30.483871,14.6774194 L30.483871,5 L32.7419355,5 L32.7419355,14.6774194 Z" id="Shape"></path>
                <rect id="Rectangle-path" x="20" y="17" width="1" height="1"></rect>
                <rect id="Rectangle-path" x="18" y="17" width="1" height="1"></rect>
                <rect id="Rectangle-path" x="27" y="24" width="1" height="1"></rect>
                <rect id="Rectangle-path" x="25" y="24" width="1" height="1"></rect>
                <rect id="Rectangle-path" x="10" y="16" width="1" height="1"></rect>
            </g>
        </g>
    </g>
</svg>