
<svg width="69px" height="86px" viewBox="0 0 69 86" version="1.1" xmlns="http://www.w3.org/2000/svg" xmlns:xlink="http://www.w3.org/1999/xlink">
    <!-- Generator: Sketch 50.2 (55047) - http://www.bohemiancoding.com/sketch -->
    <desc>Created with Sketch.</desc>
    <defs>
        <path d="M33.6287712,77.8774918 C53.2095904,58.158393 63,42.6992291 63,31.5 C63,14.1030304 48.8969696,0 31.5,0 C14.1030304,0 0,14.1030304 0,31.5 C0,42.6992283 9.79040826,58.1583909 29.3712248,77.8774878 L29.3712207,77.8774918 C30.5386663,79.0531819 32.4381531,79.0598654 33.6138432,77.8924198 C33.6188367,77.8874613 33.6238127,77.8824853 33.6287712,77.8774918 Z" id="path-1"></path>
        <filter x="-7.1%" y="-4.4%" width="114.3%" height="112.5%" filterUnits="objectBoundingBox" id="filter-2">
            <feMorphology radius="2" operator="dilate" in="SourceAlpha" result="shadowSpreadOuter1"></feMorphology>
            <feOffset dx="0" dy="2" in="shadowSpreadOuter1" result="shadowOffsetOuter1"></feOffset>
            <feGaussianBlur stdDeviation="0.5" in="shadowOffsetOuter1" result="shadowBlurOuter1"></feGaussianBlur>
            <feComposite in="shadowBlurOuter1" in2="SourceAlpha" operator="out" result="shadowBlurOuter1"></feComposite>
            <feColorMatrix values="0 0 0 0 0   0 0 0 0 0   0 0 0 0 0  0 0 0 0.236129982 0" type="matrix" in="shadowBlurOuter1"></feColorMatrix>
        </filter>
    </defs>
    <g id="Page-1" stroke="none" stroke-width="1" fill="none" fill-rule="evenodd">
        <g id="Group-4" transform="translate(3.000000, 2.000000)">
            <g id="Oval-Copy-2">
                <use fill="black" fill-opacity="1" filter="url(#filter-2)" xlink:href="#path-1"></use>
                <use stroke="#C7C7C7" stroke-width="4" fill="#FFFFFF" fill-rule="evenodd" xlink:href="#path-1"></use>
            </g>
            <g id="oil-storage" transform="translate(14.000000, 14.000000)" fill="#434343" fill-rule="nonzero">
                <path d="M35,5.64516129 L35,4.51612903 L33.8709677,4.51612903 L33.8709677,0 L4.51612903,0 L4.51612903,4.51612903 L3.38709677,4.51612903 L3.38709677,5.64516129 L4.51612903,5.64516129 L4.51612903,9.03225806 L1.12903226,9.03225806 L1.12903226,13.5483871 L0,13.5483871 L0,14.6774194 L1.12903226,14.6774194 L1.12903226,33.8709677 L0,33.8709677 L0,35 L35,35 L35,33.8709677 L33.8709677,33.8709677 L33.8709677,5.64516129 L35,5.64516129 Z M22.5806452,1.12903226 L27.0967742,1.12903226 L27.0967742,2.25806452 L22.5806452,2.25806452 L22.5806452,1.12903226 Z M22.5806452,3.38709677 L27.0967742,3.38709677 L27.0967742,4.51612903 L22.5806452,4.51612903 L22.5806452,3.38709677 Z M16.9354839,1.12903226 L21.4516129,1.12903226 L21.4516129,2.25806452 L16.9354839,2.25806452 L16.9354839,1.12903226 Z M16.9354839,3.38709677 L21.4516129,3.38709677 L21.4516129,4.51612903 L16.9354839,4.51612903 L16.9354839,3.38709677 Z M11.2903226,1.12903226 L15.8064516,1.12903226 L15.8064516,2.25806452 L11.2903226,2.25806452 L11.2903226,1.12903226 Z M11.2903226,3.38709677 L15.8064516,3.38709677 L15.8064516,4.51612903 L11.2903226,4.51612903 L11.2903226,3.38709677 Z M5.64516129,1.12903226 L10.1612903,1.12903226 L10.1612903,2.25806452 L5.64516129,2.25806452 L5.64516129,1.12903226 Z M5.64516129,3.38709677 L10.1612903,3.38709677 L10.1612903,4.51612903 L5.64516129,4.51612903 L5.64516129,3.38709677 Z M2.25806452,10.1612903 L5.64516129,10.1612903 L5.64516129,11.2903226 L2.25806452,11.2903226 L2.25806452,10.1612903 Z M2.25806452,12.4193548 L5.64516129,12.4193548 L5.64516129,13.5483871 L2.25806452,13.5483871 L2.25806452,12.4193548 Z M15.2419355,20.3225806 L14.1129032,20.3225806 L14.1129032,21.4516129 L15.2419355,21.4516129 L15.2419355,27.0967742 L14.1129032,27.0967742 L14.1129032,28.2258065 L15.2419355,28.2258065 L15.2419355,33.8709677 L2.25806452,33.8709677 L2.25806452,28.2258065 L12.983871,28.2258065 L12.983871,27.0967742 L2.25806452,27.0967742 L2.25806452,21.4516129 L12.983871,21.4516129 L12.983871,20.3225806 L2.25806452,20.3225806 L2.25806452,14.6774194 L15.2419355,14.6774194 L15.2419355,20.3225806 Z M10.7258065,12.4193548 L10.7258065,13.5483871 L6.77419355,13.5483871 L6.77419355,12.4193548 L10.7258065,12.4193548 Z M6.77419355,11.2903226 L6.77419355,10.1612903 L10.7258065,10.1612903 L10.7258065,11.2903226 L6.77419355,11.2903226 Z M15.2419355,13.5483871 L11.8548387,13.5483871 L11.8548387,12.4193548 L15.2419355,12.4193548 L15.2419355,13.5483871 Z M15.2419355,11.2903226 L11.8548387,11.2903226 L11.8548387,10.1612903 L15.2419355,10.1612903 L15.2419355,11.2903226 Z M25.9677419,33.8709677 L16.3709677,33.8709677 L16.3709677,23.5154839 L25.9677419,28.5662097 L25.9677419,33.8709677 Z M16.3709677,22.2402419 L16.3709677,18.9999194 L18.6290323,20.1882258 L18.6290323,23.4285484 L16.3709677,22.2402419 Z M19.7580645,24.0224194 L19.7580645,20.7820968 L22.5806452,22.2679032 L22.5806452,25.5082258 L19.7580645,24.0224194 Z M25.9677419,27.2909677 L23.7096774,26.1026613 L23.7096774,22.8623387 L25.9677419,24.0506452 L25.9677419,27.2909677 Z M30.483871,33.8709677 L27.0967742,33.8709677 L27.0967742,32.7419355 L30.483871,32.7419355 L30.483871,33.8709677 Z M30.483871,31.6129032 L27.0967742,31.6129032 L27.0967742,30.483871 L30.483871,30.483871 L30.483871,31.6129032 Z M30.483871,29.3548387 L27.0967742,29.3548387 L27.0967742,28.2258065 L30.483871,28.2258065 L30.483871,29.3548387 Z M32.7419355,33.8709677 L31.6129032,33.8709677 L31.6129032,23.7096774 L30.483871,23.7096774 L30.483871,27.0967742 L27.0967742,27.0967742 L27.0967742,23.3687097 L16.3709677,17.7235484 L16.3709677,14.6774194 L17.5,14.6774194 L17.5,13.5483871 L16.3709677,13.5483871 L16.3709677,9.03225806 L5.64516129,9.03225806 L5.64516129,5.64516129 L32.7419355,5.64516129 L32.7419355,33.8709677 Z M32.7419355,4.51612903 L28.2258065,4.51612903 L28.2258065,3.38709677 L32.7419355,3.38709677 L32.7419355,4.51612903 Z M32.7419355,2.25806452 L28.2258065,2.25806452 L28.2258065,1.12903226 L32.7419355,1.12903226 L32.7419355,2.25806452 Z" id="Shape" stroke="#C7C7C7" stroke-width="7" stroke-linecap="round" stroke-linejoin="round"></path>
                <path d="M35,5.64516129 L35,4.51612903 L33.8709677,4.51612903 L33.8709677,0 L4.51612903,0 L4.51612903,4.51612903 L3.38709677,4.51612903 L3.38709677,5.64516129 L4.51612903,5.64516129 L4.51612903,9.03225806 L1.12903226,9.03225806 L1.12903226,13.5483871 L0,13.5483871 L0,14.6774194 L1.12903226,14.6774194 L1.12903226,33.8709677 L0,33.8709677 L0,35 L35,35 L35,33.8709677 L33.8709677,33.8709677 L33.8709677,5.64516129 L35,5.64516129 Z M22.5806452,1.12903226 L27.0967742,1.12903226 L27.0967742,2.25806452 L22.5806452,2.25806452 L22.5806452,1.12903226 Z M22.5806452,3.38709677 L27.0967742,3.38709677 L27.0967742,4.51612903 L22.5806452,4.51612903 L22.5806452,3.38709677 Z M16.9354839,1.12903226 L21.4516129,1.12903226 L21.4516129,2.25806452 L16.9354839,2.25806452 L16.9354839,1.12903226 Z M16.9354839,3.38709677 L21.4516129,3.38709677 L21.4516129,4.51612903 L16.9354839,4.51612903 L16.9354839,3.38709677 Z M11.2903226,1.12903226 L15.8064516,1.12903226 L15.8064516,2.25806452 L11.2903226,2.25806452 L11.2903226,1.12903226 Z M11.2903226,3.38709677 L15.8064516,3.38709677 L15.8064516,4.51612903 L11.2903226,4.51612903 L11.2903226,3.38709677 Z M5.64516129,1.12903226 L10.1612903,1.12903226 L10.1612903,2.25806452 L5.64516129,2.25806452 L5.64516129,1.12903226 Z M5.64516129,3.38709677 L10.1612903,3.38709677 L10.1612903,4.51612903 L5.64516129,4.51612903 L5.64516129,3.38709677 Z M2.25806452,10.1612903 L5.64516129,10.1612903 L5.64516129,11.2903226 L2.25806452,11.2903226 L2.25806452,10.1612903 Z M2.25806452,12.4193548 L5.64516129,12.4193548 L5.64516129,13.5483871 L2.25806452,13.5483871 L2.25806452,12.4193548 Z M15.2419355,20.3225806 L14.1129032,20.3225806 L14.1129032,21.4516129 L15.2419355,21.4516129 L15.2419355,27.0967742 L14.1129032,27.0967742 L14.1129032,28.2258065 L15.2419355,28.2258065 L15.2419355,33.8709677 L2.25806452,33.8709677 L2.25806452,28.2258065 L12.983871,28.2258065 L12.983871,27.0967742 L2.25806452,27.0967742 L2.25806452,21.4516129 L12.983871,21.4516129 L12.983871,20.3225806 L2.25806452,20.3225806 L2.25806452,14.6774194 L15.2419355,14.6774194 L15.2419355,20.3225806 Z M10.7258065,12.4193548 L10.7258065,13.5483871 L6.77419355,13.5483871 L6.77419355,12.4193548 L10.7258065,12.4193548 Z M6.77419355,11.2903226 L6.77419355,10.1612903 L10.7258065,10.1612903 L10.7258065,11.2903226 L6.77419355,11.2903226 Z M15.2419355,13.5483871 L11.8548387,13.5483871 L11.8548387,12.4193548 L15.2419355,12.4193548 L15.2419355,13.5483871 Z M15.2419355,11.2903226 L11.8548387,11.2903226 L11.8548387,10.1612903 L15.2419355,10.1612903 L15.2419355,11.2903226 Z M25.9677419,33.8709677 L16.3709677,33.8709677 L16.3709677,23.5154839 L25.9677419,28.5662097 L25.9677419,33.8709677 Z M16.3709677,22.2402419 L16.3709677,18.9999194 L18.6290323,20.1882258 L18.6290323,23.4285484 L16.3709677,22.2402419 Z M19.7580645,24.0224194 L19.7580645,20.7820968 L22.5806452,22.2679032 L22.5806452,25.5082258 L19.7580645,24.0224194 Z M25.9677419,27.2909677 L23.7096774,26.1026613 L23.7096774,22.8623387 L25.9677419,24.0506452 L25.9677419,27.2909677 Z M30.483871,33.8709677 L27.0967742,33.8709677 L27.0967742,32.7419355 L30.483871,32.7419355 L30.483871,33.8709677 Z M30.483871,31.6129032 L27.0967742,31.6129032 L27.0967742,30.483871 L30.483871,30.483871 L30.483871,31.6129032 Z M30.483871,29.3548387 L27.0967742,29.3548387 L27.0967742,28.2258065 L30.483871,28.2258065 L30.483871,29.3548387 Z M32.7419355,33.8709677 L31.6129032,33.8709677 L31.6129032,23.7096774 L30.483871,23.7096774 L30.483871,27.0967742 L27.0967742,27.0967742 L27.0967742,23.3687097 L16.3709677,17.7235484 L16.3709677,14.6774194 L17.5,14.6774194 L17.5,13.5483871 L16.3709677,13.5483871 L16.3709677,9.03225806 L5.64516129,9.03225806 L5.64516129,5.64516129 L32.7419355,5.64516129 L32.7419355,33.8709677 Z M32.7419355,4.51612903 L28.2258065,4.51612903 L28.2258065,3.38709677 L32.7419355,3.38709677 L32.7419355,4.51612903 Z M32.7419355,2.25806452 L28.2258065,2.25806452 L28.2258065,1.12903226 L32.7419355,1.12903226 L32.7419355,2.25806452 Z" id="Shape"></path>
                <rect id="Rectangle-path" x="30" y="7" width="1" height="1"></rect>
                <rect id="Rectangle-path" x="28" y="7" width="1" height="1"></rect>
                <rect id="Rectangle-path" x="30" y="9" width="1" height="1"></rect>
                <rect id="Rectangle-path" x="13" y="16" width="1" height="1"></rect>
                <rect id="Rectangle-path" x="11" y="16" width="1" height="1"></rect>
                <rect id="Rectangle-path" x="13" y="18" width="1" height="1"></rect>
            </g>
        </g>
    </g>
</svg>