
<svg width="69px" height="86px" viewBox="0 0 69 86" version="1.1" xmlns="http://www.w3.org/2000/svg" xmlns:xlink="http://www.w3.org/1999/xlink">
    <!-- Generator: Sketch 50.2 (55047) - http://www.bohemiancoding.com/sketch -->
    <desc>Created with Sketch.</desc>
    <defs>
        <path d="M33.6287712,77.8774918 C53.2095904,58.158393 63,42.6992291 63,31.5 C63,14.1030304 48.8969696,0 31.5,0 C14.1030304,0 0,14.1030304 0,31.5 C0,42.6992283 9.79040826,58.1583909 29.3712248,77.8774878 L29.3712207,77.8774918 C30.5386663,79.0531819 32.4381531,79.0598654 33.6138432,77.8924198 C33.6188367,77.8874613 33.6238127,77.8824853 33.6287712,77.8774918 Z" id="path-1"></path>
        <filter x="-7.1%" y="-4.4%" width="114.3%" height="112.5%" filterUnits="objectBoundingBox" id="filter-2">
            <feMorphology radius="2" operator="dilate" in="SourceAlpha" result="shadowSpreadOuter1"></feMorphology>
            <feOffset dx="0" dy="2" in="shadowSpreadOuter1" result="shadowOffsetOuter1"></feOffset>
            <feGaussianBlur stdDeviation="0.5" in="shadowOffsetOuter1" result="shadowBlurOuter1"></feGaussianBlur>
            <feComposite in="shadowBlurOuter1" in2="SourceAlpha" operator="out" result="shadowBlurOuter1"></feComposite>
            <feColorMatrix values="0 0 0 0 0   0 0 0 0 0   0 0 0 0 0  0 0 0 0.236129982 0" type="matrix" in="shadowBlurOuter1"></feColorMatrix>
        </filter>
    </defs>
    <g id="Page-1" stroke="none" stroke-width="1" fill="none" fill-rule="evenodd">
        <g id="Group-3" transform="translate(3.000000, 2.000000)">
            <g id="Oval-Copy-3">
                <use fill="black" fill-opacity="1" filter="url(#filter-2)" xlink:href="#path-1"></use>
                <use stroke="#C7C7C7" stroke-width="4" fill="#FFFFFF" fill-rule="evenodd" xlink:href="#path-1"></use>
            </g>
            <g id="oil-sump" transform="translate(14.000000, 14.000000)" fill="#434343" fill-rule="nonzero">
                <rect id="Rectangle-path" x="34" y="34" width="1" height="1"></rect>
                <path d="M28.6751613,7.49620968 L31.8522581,12.983871 L33.7320968,12.983871 L34.7228226,9.51887097 C34.9068548,8.87419355 35,8.20637097 35,7.53572581 C35,5.45379032 34.1012903,3.47403226 32.5347581,2.10282258 L30.1316129,0 L26.8630645,0 L25.2620968,1.60096774 L26.46,3.67048387 L11.8745968,12.2206452 C11.3614516,12.5209677 10.9979032,13.0041935 10.851129,13.5805645 C10.7037903,14.1569355 10.7918548,14.7541935 11.0978226,15.2639516 C11.4026613,15.7725806 11.8847581,16.1129839 12.4199194,16.2569355 L12.4199194,23.1451613 L10.5259677,23.1451613 L1.12903226,30.7796774 L1.12903226,33.8709677 L0,33.8709677 L0,35 L32.7419355,35 L32.7419355,33.8709677 L27.6612903,33.8709677 L27.6612903,32.1774194 L25.3371774,13.5483871 L24.2741935,13.5483871 L24.2741935,10.0760484 L28.6751613,7.49620968 Z M25.4032258,23.1807258 L26.5322581,32.2129839 L26.5322581,33.8709677 L25.4032258,33.8709677 L25.4032258,23.1807258 Z M27.3304839,1.12903226 L29.7070968,1.12903226 L31.7912903,2.95241935 C33.1128226,4.1091129 33.8709677,5.77951613 33.8709677,7.53572581 C33.8709677,8.10193548 33.7919355,8.66532258 33.6366935,9.20951613 L32.8808065,11.8548387 L32.5025806,11.8548387 L26.6733871,1.78612903 L27.3304839,1.12903226 Z M7.33870968,33.8709677 L6.20967742,33.8709677 L6.20967742,32.1774194 L7.33870968,32.1774194 L7.33870968,33.8709677 Z M10.7258065,33.8709677 L8.46774194,33.8709677 L8.46774194,31.0483871 L5.08064516,31.0483871 L5.08064516,33.8709677 L2.25806452,33.8709677 L2.25806452,31.3170968 L10.9262097,24.2741935 L16.3709677,24.2741935 L16.3709677,26.5322581 L10.7258065,26.5322581 L10.7258065,33.8709677 Z M13.5483871,23.1451613 L13.5483871,16.2648387 C13.7414516,16.2151613 13.9305645,16.1395161 14.1100806,16.0339516 L14.6774194,15.7014516 L14.6774194,23.1451613 L13.5483871,23.1451613 Z M17.5,33.8709677 L11.8548387,33.8709677 L11.8548387,27.6612903 L17.5,27.6612903 L17.5,33.8709677 Z M22.016129,33.8709677 L20.8870968,33.8709677 L20.8870968,32.2124194 L22.016129,23.1801613 L22.016129,33.8709677 Z M19.7625806,32.1074194 L19.7591935,33.8709677 L18.6290323,33.8709677 L18.6290323,26.5322581 L17.5,26.5322581 L17.5,23.1451613 L15.8064516,23.1451613 L15.8064516,15.0398387 L23.1451613,10.7376613 L23.1451613,13.5483871 L22.0821774,13.5483871 L19.7625806,32.1074194 Z M24.2741935,33.8709677 L23.1451613,33.8709677 L23.1451613,31.6129032 L24.2741935,31.6129032 L24.2741935,33.8709677 Z M24.2741935,30.483871 L23.1451613,30.483871 L23.1451613,28.2258065 L24.2741935,28.2258065 L24.2741935,30.483871 Z M24.2741935,27.0967742 L23.1451613,27.0967742 L23.1451613,24.8387097 L24.2741935,24.8387097 L24.2741935,27.0967742 Z M24.2741935,23.7096774 L23.1451613,23.7096774 L23.1451613,21.4516129 L24.2741935,21.4516129 L24.2741935,23.7096774 Z M24.2741935,20.3225806 L23.1451613,20.3225806 L23.1451613,18.0645161 L24.2741935,18.0645161 L24.2741935,20.3225806 Z M24.2741935,16.9354839 L23.1451613,16.9354839 L23.1451613,14.6774194 L24.2741935,14.6774194 L24.2741935,16.9354839 Z M13.5393548,15.0607258 C13.0290323,15.3599194 12.3685484,15.188871 12.0654032,14.683629 C11.9152419,14.4346774 11.8729032,14.1416935 11.9445968,13.86 C12.0168548,13.5783065 12.1941129,13.3417742 12.4458871,13.1944355 L27.0256452,4.64766129 L28.1095161,6.51959677 L13.5393548,15.0607258 Z" id="Shape" stroke="#C7C7C7" stroke-width="7" stroke-linecap="round" stroke-linejoin="round"></path>
                <path d="M28.6751613,7.49620968 L31.8522581,12.983871 L33.7320968,12.983871 L34.7228226,9.51887097 C34.9068548,8.87419355 35,8.20637097 35,7.53572581 C35,5.45379032 34.1012903,3.47403226 32.5347581,2.10282258 L30.1316129,0 L26.8630645,0 L25.2620968,1.60096774 L26.46,3.67048387 L11.8745968,12.2206452 C11.3614516,12.5209677 10.9979032,13.0041935 10.851129,13.5805645 C10.7037903,14.1569355 10.7918548,14.7541935 11.0978226,15.2639516 C11.4026613,15.7725806 11.8847581,16.1129839 12.4199194,16.2569355 L12.4199194,23.1451613 L10.5259677,23.1451613 L1.12903226,30.7796774 L1.12903226,33.8709677 L0,33.8709677 L0,35 L32.7419355,35 L32.7419355,33.8709677 L27.6612903,33.8709677 L27.6612903,32.1774194 L25.3371774,13.5483871 L24.2741935,13.5483871 L24.2741935,10.0760484 L28.6751613,7.49620968 Z M25.4032258,23.1807258 L26.5322581,32.2129839 L26.5322581,33.8709677 L25.4032258,33.8709677 L25.4032258,23.1807258 Z M27.3304839,1.12903226 L29.7070968,1.12903226 L31.7912903,2.95241935 C33.1128226,4.1091129 33.8709677,5.77951613 33.8709677,7.53572581 C33.8709677,8.10193548 33.7919355,8.66532258 33.6366935,9.20951613 L32.8808065,11.8548387 L32.5025806,11.8548387 L26.6733871,1.78612903 L27.3304839,1.12903226 Z M7.33870968,33.8709677 L6.20967742,33.8709677 L6.20967742,32.1774194 L7.33870968,32.1774194 L7.33870968,33.8709677 Z M10.7258065,33.8709677 L8.46774194,33.8709677 L8.46774194,31.0483871 L5.08064516,31.0483871 L5.08064516,33.8709677 L2.25806452,33.8709677 L2.25806452,31.3170968 L10.9262097,24.2741935 L16.3709677,24.2741935 L16.3709677,26.5322581 L10.7258065,26.5322581 L10.7258065,33.8709677 Z M13.5483871,23.1451613 L13.5483871,16.2648387 C13.7414516,16.2151613 13.9305645,16.1395161 14.1100806,16.0339516 L14.6774194,15.7014516 L14.6774194,23.1451613 L13.5483871,23.1451613 Z M17.5,33.8709677 L11.8548387,33.8709677 L11.8548387,27.6612903 L17.5,27.6612903 L17.5,33.8709677 Z M22.016129,33.8709677 L20.8870968,33.8709677 L20.8870968,32.2124194 L22.016129,23.1801613 L22.016129,33.8709677 Z M19.7625806,32.1074194 L19.7591935,33.8709677 L18.6290323,33.8709677 L18.6290323,26.5322581 L17.5,26.5322581 L17.5,23.1451613 L15.8064516,23.1451613 L15.8064516,15.0398387 L23.1451613,10.7376613 L23.1451613,13.5483871 L22.0821774,13.5483871 L19.7625806,32.1074194 Z M24.2741935,33.8709677 L23.1451613,33.8709677 L23.1451613,31.6129032 L24.2741935,31.6129032 L24.2741935,33.8709677 Z M24.2741935,30.483871 L23.1451613,30.483871 L23.1451613,28.2258065 L24.2741935,28.2258065 L24.2741935,30.483871 Z M24.2741935,27.0967742 L23.1451613,27.0967742 L23.1451613,24.8387097 L24.2741935,24.8387097 L24.2741935,27.0967742 Z M24.2741935,23.7096774 L23.1451613,23.7096774 L23.1451613,21.4516129 L24.2741935,21.4516129 L24.2741935,23.7096774 Z M24.2741935,20.3225806 L23.1451613,20.3225806 L23.1451613,18.0645161 L24.2741935,18.0645161 L24.2741935,20.3225806 Z M24.2741935,16.9354839 L23.1451613,16.9354839 L23.1451613,14.6774194 L24.2741935,14.6774194 L24.2741935,16.9354839 Z M13.5393548,15.0607258 C13.0290323,15.3599194 12.3685484,15.188871 12.0654032,14.683629 C11.9152419,14.4346774 11.8729032,14.1416935 11.9445968,13.86 C12.0168548,13.5783065 12.1941129,13.3417742 12.4458871,13.1944355 L27.0256452,4.64766129 L28.1095161,6.51959677 L13.5393548,15.0607258 Z" id="Shape"></path>
                <path d="M7.5,24 C8.327,24 9,23.327 9,22.5 C9,21.673 8.327,21 7.5,21 C6.673,21 6,21.673 6,22.5 C6,23.327 6.673,24 7.5,24 Z M7.5,22 C7.776,22 8,22.224 8,22.5 C8,22.776 7.776,23 7.5,23 C7.224,23 7,22.776 7,22.5 C7,22.224 7.224,22 7.5,22 Z" id="Shape"></path>
                <path d="M2.5,28 C3.327,28 4,27.327 4,26.5 C4,25.673 3.327,25 2.5,25 C1.673,25 1,25.673 1,26.5 C1,27.327 1.673,28 2.5,28 Z M2.5,26 C2.776,26 3,26.224 3,26.5 C3,26.776 2.776,27 2.5,27 C2.224,27 2,26.776 2,26.5 C2,26.224 2.224,26 2.5,26 Z" id="Shape"></path>
                <rect id="Rectangle-path" x="15" y="29" width="1" height="1"></rect>
                <rect id="Rectangle-path" x="13" y="29" width="1" height="1"></rect>
                <rect id="Rectangle-path" x="17" y="15" width="1" height="1"></rect>
                <rect id="Rectangle-path" x="17" y="17" width="1" height="1"></rect>
            </g>
        </g>
    </g>
</svg>